<svg xmlns="http://www.w3.org/2000/svg" viewBox="-102.29 -56.00 112.79 133.60">
<g fill="none" stroke-width="0.206" stroke-linecap="round" stroke-linejoin="round">
<path stroke="#000000" d="M -0.00 -52.00 L -72.75 -10.00 M -72.75 -10.00 L -70.58 -8.75 M -70.58 -8.75 L 2.17 -50.75 M 2.17 -50.75 L -0.00 -52.00 M -72.75 36.00 L -70.58 37.25 M -70.58 37.25 L -70.58 -8.75 M -72.75 -10.00 L -72.75 36.00 M -71.14 -8.67 L -72.40 -8.67 M -70.93 -7.89 L -72.40 -7.89 M -70.93 -7.19 L -72.40 -7.19 M -70.93 -6.59 L -72.40 -6.59 M -70.93 -5.85 L -72.40 -5.85 M -70.93 -5.14 L -72.40 -5.14 M -70.93 -4.49 L -72.40 -4.49 M -70.93 -3.74 L -72.40 -3.74 M -70.93 -2.99 L -72.40 -2.99 M -70.93 -2.38 L -72.40 -2.38 M -70.93 -1.63 L -72.40 -1.63 M -70.93 -0.98 L -72.40 -0.98 M -70.93 -0.23 L -72.40 -0.23 M -70.93 0.51 L -72.40 0.51 M -70.93 1.13 L -72.40 1.13 M -70.93 1.81 L -72.40 1.81 M -70.93 2.52 L -72.40 2.52 M -70.93 3.27 L -72.40 3.27 M -70.93 3.91 L -72.40 3.91 M -70.93 4.62 L -72.40 4.62 M -70.93 5.36 L -72.40 5.36 M -70.93 6.11 L -72.40 6.11 M -70.93 6.76 L -72.40 6.76 M -70.93 7.45 L -72.40 7.45 M -70.93 8.18 L -72.40 8.18 M -70.93 8.82 L -72.40 8.82 M -70.93 9.57 L -72.40 9.57 M -70.93 10.23 L -72.40 10.23 M -70.93 10.98 L -72.40 10.98 M -70.93 11.72 L -72.40 11.72 M -70.93 12.31 L -72.40 12.31 M -70.93 13.07 L -72.40 13.07 M -70.93 13.78 L -72.40 13.78 M -70.93 14.42 L -72.40 14.42 M -70.93 15.14 L -72.40 15.14 M -70.93 15.92 L -72.40 15.92 M -70.93 16.62 L -72.40 16.62 M -70.93 17.22 L -72.40 17.22 M -70.93 17.99 L -72.40 17.99 M -70.93 18.71 L -72.40 18.71 M -70.93 19.33 L -72.40 19.33 M -70.93 20.08 L -72.40 20.08 M -70.93 20.71 L -72.40 20.71 M -70.93 21.45 L -72.40 21.45 M -70.93 22.18 L -72.40 22.18 M -70.93 22.87 L -72.40 22.87 M -70.93 23.59 L -72.40 23.59 M -70.93 24.22 L -72.40 24.22 M -70.93 24.95 L -72.40 24.95 M -70.93 25.70 L -72.40 25.70 M -70.93 26.37 L -72.40 26.37 M -70.93 27.06 L -72.40 27.06 M -70.93 27.75 L -72.40 27.75 M -70.93 28.52 L -72.40 28.52 M -70.93 29.17 L -72.40 29.17 M -70.93 29.81 L -72.40 29.81 M -70.93 30.60 L -72.40 30.60 M -70.93 31.24 L -72.40 31.24 M -70.93 31.96 L -72.40 31.96 M -70.93 32.63 L -72.40 32.63 M -70.93 33.36 L -72.40 33.36 M -70.93 34.04 L -72.40 34.04 M -70.93 34.72 L -72.40 34.72 M -70.93 35.48 L -72.40 35.48 M -70.93 36.12 L -71.84 36.12 M -70.58 37.25 L -62.77 32.74 M -47.65 24.01 L -44.51 22.20 M -10.39 2.50 L 2.17 -4.75 M 2.17 -4.75 L 2.17 -50.75 M -71.99 36.44 L -71.99 -9.56 M -71.23 36.88 L -71.23 -9.12 M -0.43 -3.25 L -0.43 -46.25 L -28.15 -30.25 M -40.27 -23.25 L -67.98 -7.25 L -67.98 35.75 M -28.15 -30.25 L -29.01 -27.25 L -39.40 -21.25 L -40.27 -23.25 L -28.15 -30.25 M -39.61 -23.52 L -39.91 -22.68 M -39.00 -23.87 L -39.65 -22.08 M -38.40 -24.22 L -39.39 -21.48 M -37.79 -24.57 L -38.84 -21.69 M -37.18 -24.92 L -38.23 -22.04 M -36.58 -25.27 L -37.62 -22.39 M -35.97 -25.62 L -37.02 -22.74 M -35.36 -25.97 L -36.41 -23.09 M -34.76 -26.32 L -35.80 -23.44 M -34.15 -26.67 L -35.20 -23.79 M -33.55 -27.02 L -34.59 -24.14 M -32.94 -27.37 L -33.99 -24.49 M -32.33 -27.72 L -33.38 -24.84 M -31.73 -28.07 L -32.77 -25.19 M -31.12 -28.42 L -32.17 -25.54 M -30.51 -28.77 L -31.56 -25.89 M -29.91 -29.12 L -30.95 -26.24 M -29.30 -29.47 L -30.35 -26.59 M -28.70 -29.82 L -29.74 -26.94 M -28.98 -27.72 L -29.13 -27.29"/>
<path stroke="#000000" d="M -29.01 -27.25 L -17.75 -25.75 M -39.40 -21.25 L -50.66 -6.75"/>
<path stroke="#000000" d="M -18.84 -1.13 L -25.71 2.84 M -32.62 6.83 L -43.65 13.20 M -44.90 13.93 L -50.66 17.25 M -50.66 17.25 L -39.92 23.45 M -34.21 26.75 L -26.41 31.25 M -26.41 31.25 L 6.50 12.25 M 6.50 12.25 L -12.56 1.25 M -13.81 0.53 L -14.59 0.07 M -17.10 -1.38 L -17.58 -1.65 M -50.66 18.65 L -41.14 24.15 M -35.42 27.45 L -26.41 32.65 M -26.41 32.65 L -26.41 31.25 M -50.66 17.25 L -50.66 18.65 M -49.63 18.25 L -50.31 18.25 M -48.22 19.07 L -49.24 19.07 M -46.87 19.84 L -47.90 19.84 M -45.53 20.62 L -46.56 20.62 M -44.08 21.46 L -45.10 21.46 M -42.59 22.31 L -43.61 22.31 M -41.30 23.06 L -42.32 23.06 M -34.37 27.06 L -34.75 27.06 M -32.98 27.86 L -34.01 27.86 M -31.60 28.66 L -32.62 28.66 M -30.13 29.51 L -31.15 29.51 M -28.93 30.20 L -29.95 30.20 M -27.42 31.08 L -28.44 31.08 M -26.76 31.86 L -27.08 31.86 M -26.41 32.65 L 6.50 13.65 M 6.50 13.65 L 6.50 12.25 M -25.78 31.29 L -25.78 31.88 M -24.97 30.82 L -24.97 31.41 M -24.02 30.27 L -24.02 30.86 M -23.16 29.77 L -23.16 30.36 M -22.25 29.25 L -22.25 29.84 M -21.37 28.74 L -21.37 29.33 M -20.43 28.20 L -20.43 28.79 M -19.59 27.71 L -19.59 28.31 M -18.69 27.19 L -18.69 27.78 M -17.75 26.65 L -17.75 27.24 M -16.89 26.16 L -16.89 26.75 M -15.96 25.62 L -15.96 26.21 M -14.99 25.06 L -14.99 25.65 M -14.22 24.61 L -14.22 25.21 M -13.31 24.09 L -13.31 24.68 M -12.31 23.51 L -12.31 24.10 M -11.51 23.05 L -11.51 23.64 M -10.59 22.52 L -10.59 23.11 M -9.60 21.95 L -9.60 22.54 M -8.74 21.45 L -8.74 22.04 M -7.89 20.96 L -7.89 21.55 M -7.01 20.45 L -7.01 21.05 M -6.08 19.92 L -6.08 20.51 M -5.18 19.39 L -5.18 19.99 M -4.21 18.83 L -4.21 19.42 M -3.28 18.30 L -3.28 18.89 M -2.41 17.80 L -2.41 18.39 M -1.49 17.27 L -1.49 17.86 M -0.59 16.74 L -0.59 17.34 M 0.30 16.23 L 0.30 16.82 M 1.21 15.71 L 1.21 16.30 M 2.12 15.18 L 2.12 15.77 M 2.89 14.73 L 2.89 15.33 M 3.82 14.20 L 3.82 14.79 M 4.71 13.68 L 4.71 14.27 M 5.66 13.13 L 5.66 13.73"/>
<path stroke="#000000" d="M 6.50 12.25 L 6.50 -3.75 L -17.75 -25.75 L -50.66 -6.75 L -50.66 17.25 M -17.75 -9.70 L -17.75 -25.75 M -21.04 0.15 L -20.39 0.53 M -17.88 1.97 L 3.20 14.15 M -24.34 2.05 L -22.43 3.15 M -21.17 3.87 L -0.09 16.05 M -27.07 4.27 L -25.69 5.07 M -22.60 6.85 L -3.38 17.95 M -25.71 8.86 L -24.33 9.65 M -23.45 10.16 L -6.67 19.85 M -34.21 7.75 L -32.62 8.67 M -25.71 12.66 L -9.96 21.75 M -37.50 9.65 L -31.24 13.26 M -28.65 14.76 L -27.09 15.66 M -24.51 17.15 L -13.25 23.65 M -40.79 11.55 L -31.24 17.07 M -29.86 17.86 L -16.54 25.55 M -42.39 14.42 L -32.47 20.15 M -31.09 20.95 L -19.83 27.45 M -47.37 15.35 L -46.16 16.05 M -44.77 16.85 L -23.12 29.35 M -23.86 4.11 L -24.33 4.38 M -32.62 9.17 L -42.39 14.81 M -46.16 16.98 L -48.64 18.42 M -13.81 0.64 L -22.60 5.72 M -24.33 6.71 L -25.71 7.51 M -31.24 10.70 L -46.62 19.58 M -11.69 1.75 L -12.56 2.25 M -13.81 2.98 L -22.60 8.05 M -24.33 9.05 L -25.71 9.84 M -31.24 13.04 L -44.60 20.75 M -9.67 2.92 L -25.71 12.18 M -31.24 15.37 L -42.58 21.92 M -7.65 4.08 L -25.71 14.51 M -27.09 15.31 L -29.86 16.90 M -31.24 17.70 L -40.56 23.08 M -5.63 5.25 L -24.33 16.05 M -27.09 17.64 L -29.86 19.24 M -32.62 20.83 L -36.81 23.25 M -3.61 6.42 L -34.79 24.42 M -1.59 7.58 L -32.76 25.58 M 0.43 8.75 L -32.48 27.75 M 2.45 9.92 L -30.46 28.92 M 4.47 11.08 L -28.43 30.08"/>
<path stroke="#000000" d="M -31.60 -13.10 L -31.60 -14.54 L -32.86 -13.82 L -32.86 -12.37 L -32.86 -10.92 L -32.86 -9.47 L -34.11 -8.75 L -34.11 -10.20 L -34.11 -11.65 L -34.11 -13.09 L -35.37 -12.37 L -36.62 -11.64 L -36.62 -10.20 L -36.62 -8.75 L -36.62 -7.30 L -37.88 -6.57 L -37.88 -8.02 L -37.88 -9.47 L -37.88 -10.92 L -39.14 -10.19 L -40.39 -9.47 L -40.39 -8.02 L -40.39 -6.57 L -40.39 -5.12 L -41.65 -4.39 L -41.65 -5.84 L -41.65 -7.30 L -41.65 -8.74 L -42.90 -8.02 L -44.16 -7.29 L -44.16 -5.85 L -44.16 -4.39 L -44.16 -2.95 L -44.16 -1.50 L -42.90 -2.22 L -41.65 -2.95 L -40.39 -3.67 L -39.14 -4.39 L -37.88 -5.12 L -36.62 -5.85 L -35.37 -6.57 L -34.11 -7.30 L -32.86 -8.02 L -31.60 -8.75 L -31.60 -10.20 L -31.60 -11.64 L -31.60 -13.10 M -31.60 -14.54 L -32.86 -13.82 L -32.86 -12.37 L -32.86 -10.92 L -32.86 -9.47 L -31.60 -10.20 L -31.60 -11.64 L -31.60 -13.10 L -31.60 -14.54 M -32.40 -13.95 L -32.74 -13.36 M -31.72 -14.30 L -32.74 -12.55 M -31.72 -13.49 L -32.74 -11.73 M -31.72 -12.68 L -32.74 -10.92 M -31.72 -11.87 L -32.74 -10.11 M -31.72 -11.06 L -32.41 -9.87 M -35.37 -8.02 L -34.11 -8.75 L -34.11 -10.20 L -34.11 -11.65 L -34.11 -13.09 L -35.37 -12.37 L -36.62 -11.64 L -36.62 -10.20 L -36.62 -8.75 L -36.62 -7.30 L -35.37 -8.02 M -35.99 -11.87 L -36.50 -10.98 M -35.29 -12.28 L -36.50 -10.17 M -34.58 -12.68 L -36.50 -9.36 M -34.23 -12.48 L -36.50 -8.55 M -34.23 -11.67 L -36.50 -7.74 M -34.23 -10.86 L -36.00 -7.79 M -34.23 -10.05 L -35.30 -8.20 M -34.23 -9.23 L -34.60 -8.60 M -39.14 -10.19 L -40.39 -9.47 L -40.39 -8.02 L -40.39 -6.57 L -40.39 -5.12 L -39.14 -5.84 L -39.14 -7.29 L -39.14 -8.75 L -39.14 -10.19 M -39.93 -9.60 L -40.27 -9.01 M -39.26 -9.95 L -40.27 -8.20 M -39.26 -9.14 L -40.27 -7.38 M -39.26 -8.33 L -40.27 -6.57 M -39.26 -7.52 L -40.27 -5.76 M -39.26 -6.71 L -39.94 -5.52 M -42.90 -3.67 L -41.65 -4.39 L -41.65 -5.84 L -41.65 -7.30 L -41.65 -8.74 L -42.90 -8.02 L -44.16 -7.29 L -44.16 -5.85 L -44.16 -4.39 L -44.16 -2.95 L -42.90 -3.67 M -43.53 -7.52 L -44.04 -6.63 M -42.82 -7.93 L -44.04 -5.82 M -42.12 -8.33 L -44.04 -5.01 M -41.77 -8.13 L -44.04 -4.20 M -41.77 -7.32 L -44.04 -3.39 M -41.77 -6.51 L -43.54 -3.44 M -41.77 -5.70 L -42.83 -3.85 M -41.77 -4.88 L -42.13 -4.25"/>
<path stroke="#000000" d="M -42.39 14.03 L -42.39 12.58 L -43.65 13.30 L -43.65 11.85 L -42.39 11.12 L -42.39 9.68 L -43.65 10.40 L -43.65 8.95 L -44.90 9.68 L -44.90 11.12 L -46.16 11.85 L -46.16 13.30 L -44.90 12.57 L -44.90 14.03 L -46.16 14.75 L -46.16 16.20 L -46.16 17.65 L -44.90 16.93 L -43.65 16.20 L -42.39 15.48 L -42.39 14.03 M -42.39 9.68 L -41.14 8.95 L -41.14 7.50 L -42.39 8.23 L -42.39 9.68 M -43.65 8.95 L -42.39 8.23 L -42.39 6.78 L -43.65 7.50 L -43.65 8.95 M -46.16 10.40 L -47.41 11.12 L -47.41 12.57 L -46.16 11.85 L -46.16 10.40 M -46.16 10.40 L -44.90 9.68 L -44.90 8.23 L -46.16 8.95 L -46.16 10.40 M -43.65 13.30 L -43.65 11.85 L -42.39 11.12 L -42.39 9.68 L -43.65 10.40 L -43.65 8.95 L -44.90 9.68 L -44.90 11.12 L -46.16 11.85 L -46.16 13.30 L -44.90 12.57 L -44.90 14.03 L -43.65 13.30 M -44.20 9.40 L -44.78 10.42 M -45.45 11.58 L -46.04 12.60 M -43.77 9.48 L -45.76 12.93 M -43.77 10.29 L -45.06 12.53 M -43.34 10.36 L -44.78 12.86 M -42.64 9.96 L -43.65 11.71 M -43.77 11.91 L -44.78 13.67 M -42.51 10.55 L -42.95 11.31 M -43.77 12.72 L -44.21 13.48 M -42.39 8.23 L -42.39 9.68 L -41.14 8.95 L -41.14 7.50 L -42.39 8.23 M -41.96 8.12 L -42.27 8.65 M -41.26 7.71 L -42.27 9.46 M -41.26 8.52 L -41.57 9.06 M -46.16 11.85 L -46.16 10.40 L -47.41 11.12 L -47.41 12.57 L -46.16 11.85 M -46.98 11.02 L -47.29 11.55 M -46.28 10.61 L -47.29 12.36 M -46.28 11.42 L -46.59 11.96 M -43.65 8.95 L -42.39 8.23 L -42.39 6.78 L -43.65 7.50 L -43.65 8.95 M -43.22 7.39 L -43.53 7.93 M -42.51 6.98 L -43.53 8.74 M -42.51 7.79 L -42.83 8.34 M -46.16 10.40 L -44.90 9.68 L -44.90 8.23 L -46.16 8.95 L -46.16 10.40 M -45.73 8.84 L -46.04 9.38 M -45.03 8.43 L -46.04 10.19 M -45.02 9.24 L -45.34 9.79"/>
<path stroke="#000000" d="M -12.56 -1.10 L -12.56 -2.55 L -13.81 -1.82 L -15.07 -1.10 L -15.07 -2.55 L -16.32 -1.82 L -17.58 -1.10 L -17.58 -2.55 L -16.32 -3.27 L -15.07 -4.00 L -13.81 -4.72 L -13.81 -6.17 L -13.81 -7.62 L -13.81 -9.07 L -13.81 -10.52 L -13.81 -11.97 L -15.07 -11.25 L -16.32 -10.52 L -17.58 -9.80 L -18.84 -9.07 L -20.09 -8.35 L -21.35 -7.62 L -22.60 -6.90 L -22.60 -5.45 L -22.60 -4.00 L -22.60 -2.55 L -22.60 -1.10 L -22.60 0.35 L -21.35 -0.38 L -20.09 -1.10 L -18.84 -1.82 L -18.84 -0.38 L -20.09 0.35 L -21.35 1.07 L -21.35 2.52 L -22.60 3.25 L -23.86 3.97 L -23.86 5.42 L -23.86 5.61 M -22.95 9.25 L -22.60 9.05 L -22.60 7.60 L -22.60 6.15 L -22.60 4.70 L -21.35 3.97 L -20.09 3.25 L -18.84 2.52 L -17.58 1.80 L -16.32 1.07 L -15.07 0.35 L -13.81 -0.38 L -13.81 1.08 L -13.81 2.53 L -13.81 3.98 L -12.56 3.25 L -12.56 1.80 L -12.56 0.35 L -12.56 -1.10 M -17.58 -1.10 L -17.58 -2.55 L -16.32 -3.27 L -15.07 -4.00 L -13.81 -4.72 L -13.81 -6.17 L -13.81 -7.62 L -13.81 -9.07 L -13.81 -10.52 L -13.81 -11.97 L -15.07 -11.25 L -16.32 -10.52 L -17.58 -9.80 L -18.84 -9.07 L -20.09 -8.35 L -21.35 -7.62 L -22.60 -6.90 L -22.60 -5.45 L -22.60 -4.00 L -21.35 -4.72 L -21.35 -6.18 L -20.09 -6.90 L -18.84 -7.62 L -17.58 -8.35 L -16.32 -9.07 L -15.07 -9.80 L -15.07 -8.35 L -15.07 -6.90 L -15.07 -5.45 L -16.32 -4.72 L -17.58 -4.00 L -18.84 -3.27 L -20.09 -2.55 L -20.09 -4.00 L -21.35 -3.28 L -22.60 -2.55 L -22.60 -1.10 L -22.60 0.35 L -21.35 -0.38 L -20.09 -1.10 L -18.84 -1.82 L -18.84 -0.38 L -20.09 0.35 L -21.35 1.07 L -21.35 2.52 L -20.09 1.80 L -18.84 1.07 L -17.58 0.35 L -16.32 -0.38 L -15.07 -1.10 L -15.07 -2.55 L -16.32 -1.82 L -17.58 -1.10 M -21.69 -7.29 L -22.48 -5.91 M -20.99 -7.70 L -22.48 -5.10 M -20.28 -8.10 L -21.30 -6.34 M -21.47 -6.05 L -22.48 -4.29 M -19.58 -8.51 L -20.59 -6.75 M -21.47 -5.24 L -21.85 -4.57 M -18.88 -8.91 L -19.89 -7.15 M -18.17 -9.32 L -19.19 -7.56 M -21.94 -2.79 L -22.48 -1.85 M -17.47 -9.73 L -18.49 -7.97 M -21.24 -3.20 L -22.48 -1.04 M -16.77 -10.13 L -17.78 -8.37 M -20.53 -3.61 L -22.48 -0.23 M -16.06 -10.54 L -17.08 -8.78 M -20.21 -3.35 L -22.10 -0.08 M -15.36 -10.94 L -16.38 -9.18 M -20.21 -2.54 L -21.40 -0.48 M -14.66 -11.35 L -15.67 -9.59 M -19.68 -2.65 L -20.70 -0.89 M -13.95 -11.76 L -15.02 -9.91 M -18.98 -3.06 L -19.99 -1.30 M -13.93 -10.98 L -14.95 -9.22 M -18.27 -3.46 L -19.29 -1.70 M -20.78 0.89 L -21.23 1.66 M -13.93 -10.17 L -14.95 -8.41 M -17.57 -3.87 L -18.72 -1.87 M -20.08 0.48 L -21.10 2.24 M -13.93 -9.35 L -14.95 -7.60 M -16.87 -4.27 L -18.72 -1.07 M -19.38 0.08 L -20.39 1.84 M -13.93 -8.54 L -14.95 -6.78 M -16.16 -4.68 L -17.18 -2.92 M -17.70 -2.02 L -19.69 1.43 M -13.93 -7.73 L -14.95 -5.97 M -15.46 -5.09 L -16.48 -3.33 M -17.70 -1.21 L -18.99 1.02 M -13.93 -6.92 L -15.77 -3.73 M -17.27 -1.14 L -18.28 0.62 M -13.93 -6.11 L -15.07 -4.14 M -16.57 -1.55 L -17.58 0.21 M -13.93 -5.29 L -14.37 -4.54 M -15.86 -1.95 L -16.88 -0.19 M -15.19 -2.31 L -16.17 -0.60 M -15.19 -1.50 L -15.47 -1.01 M -16.32 -6.18 L -16.32 -7.62 L -17.58 -6.90 L -17.58 -5.45 L -16.32 -6.18 M -17.15 -7.01 L -17.46 -6.47 M -16.45 -7.42 L -17.46 -5.66 M -16.44 -6.61 L -16.76 -6.06"/>
<path stroke="#000000" d="M -25.71 13.06 L -25.71 11.46 L -25.71 9.87 L -25.71 8.27 L -25.71 6.68 L -24.33 5.88 L -24.33 4.29 L -25.71 5.09 L -27.09 5.88 L -27.09 4.29 L -25.71 3.49 L -25.71 1.89 L -25.71 0.30 L -25.71 -1.30 L -27.09 -0.50 L -28.47 0.30 L -29.86 1.10 L -31.24 1.89 L -31.24 0.30 L -32.62 1.10 L -32.62 2.69 L -32.62 4.29 L -32.62 5.88 L -32.62 7.48 L -32.62 9.07 L -32.62 10.67 L -31.24 9.87 L -31.24 11.46 L -31.24 13.06 L -31.24 14.65 L -31.24 16.25 L -31.24 17.84 L -31.24 19.44 L -32.62 20.24 L -32.62 21.83 L -31.24 21.03 L -29.86 20.24 L -29.86 18.64 L -29.86 17.05 L -29.86 15.45 L -28.47 14.65 L -27.09 13.86 L -27.09 15.45 L -27.09 17.05 L -27.09 18.64 L -25.71 17.84 L -24.33 17.05 L -24.33 15.45 L -25.71 16.25 L -25.71 14.65 L -25.71 13.06 M -31.24 8.27 L -31.24 6.68 L -29.86 5.88 L -29.86 7.48 L -31.24 8.27 M -22.95 8.27 L -22.95 6.68 L -22.95 5.09 L -24.33 5.88 L -24.33 7.48 L -24.33 9.07 L -24.33 10.67 L -22.95 9.87 L -22.95 8.27 M -25.71 6.68 L -24.33 5.88 L -24.33 4.29 L -25.71 5.09 L -27.09 5.88 L -28.47 6.68 L -29.86 7.48 L -31.24 8.27 L -31.24 6.68 L -31.24 5.08 L -31.24 3.49 L -31.24 1.89 L -31.24 0.30 L -32.62 1.10 L -32.62 2.69 L -32.62 4.29 L -32.62 5.88 L -32.62 7.48 L -32.62 9.07 L -32.62 10.67 L -31.24 9.87 L -31.24 11.46 L -31.24 13.06 L -31.24 14.65 L -29.86 13.86 L -28.47 13.06 L -27.09 12.26 L -25.71 11.46 L -25.71 9.87 L -25.71 8.27 L -25.71 6.68 M -31.86 0.80 L -32.50 1.91 M -31.36 0.82 L -32.50 2.80 M -31.36 1.72 L -32.50 3.69 M -31.36 2.61 L -32.50 4.59 M -31.36 3.50 L -32.50 5.48 M -31.36 4.40 L -32.50 6.37 M -31.36 5.29 L -32.50 7.27 M -31.36 6.18 L -32.50 8.16 M -31.36 7.07 L -32.50 9.05 M -31.36 7.97 L -32.50 9.94 M -31.03 8.29 L -32.17 10.27 M -30.26 7.85 L -31.40 9.82 M -29.48 7.40 L -31.12 10.23 M -28.71 6.95 L -31.12 11.13 M -27.94 6.51 L -31.12 12.02 M -27.16 6.06 L -31.12 12.91 M -26.39 5.61 L -31.12 13.80 M -25.62 5.17 L -30.90 14.32 M -24.84 4.72 L -30.13 13.88 M -24.45 4.94 L -25.21 6.25 M -25.83 7.33 L -29.35 13.43 M -25.83 8.22 L -28.58 12.98 M -25.83 9.12 L -27.81 12.54 M -25.83 10.01 L -27.03 12.09 M -25.83 10.90 L -26.26 11.64 M -22.95 6.68 L -22.95 5.09 L -24.33 5.88 L -24.33 7.48 L -24.33 9.07 L -22.95 8.27 L -22.95 6.68 M -23.46 5.52 L -24.21 6.82 M -23.07 5.74 L -24.21 7.71 M -23.07 6.63 L -24.21 8.61 M -23.07 7.52 L -23.66 8.55"/>
<path stroke="#000000" d="M -37.67 22.75 L -38.45 23.20 M -42.44 25.50 L -44.50 26.69 M -47.33 28.33 L -50.60 30.21 M -51.77 30.89 L -53.40 31.83 M -62.02 36.81 L -64.43 38.20 M -68.42 40.50 L -70.93 41.95 M -74.91 44.25 L -77.42 45.70 M -81.41 48.00 L -86.17 50.75 M -86.17 50.75 L -80.97 53.75 M -80.97 53.75 L -59.10 41.12 M -51.13 36.52 L -45.07 33.02 M -42.23 31.38 L -32.48 25.75 M -32.48 25.75 L -37.67 22.75"/>
<path stroke="#000000" d="M -38.97 22.90 L -42.44 24.90 M -42.44 24.90 L -38.97 26.90 M -38.97 26.90 L -35.51 24.90 M -35.51 24.90 L -38.97 22.90 M -42.44 26.50 L -38.97 28.50 M -38.97 28.50 L -38.97 26.90 M -42.44 24.90 L -42.44 26.50 M -41.14 26.05 L -42.09 26.05 M -40.29 26.55 L -41.66 26.55 M -39.36 27.08 L -40.74 27.08 M -39.32 27.53 L -39.95 27.53 M -38.97 28.50 L -35.51 26.50 M -35.51 26.50 L -35.51 24.90"/>
<path stroke="#000000" d="M -64.95 37.90 L -68.42 39.90 M -68.42 39.90 L -64.95 41.90 M -64.95 41.90 L -61.49 39.90 M -61.49 39.90 L -64.95 37.90 M -68.42 41.50 L -64.95 43.50 M -64.95 43.50 L -64.95 41.90 M -68.42 39.90 L -68.42 41.50 M -67.18 41.02 L -68.07 41.02 M -66.32 41.52 L -67.69 41.52 M -65.35 42.07 L -66.72 42.07 M -65.30 42.59 L -65.83 42.59 M -64.95 43.50 L -61.49 41.50 M -61.49 41.50 L -61.49 39.90"/>
<path stroke="#000000" d="M -71.45 41.65 L -74.91 43.65 M -74.91 43.65 L -71.45 45.65 M -71.45 45.65 L -67.98 43.65 M -67.98 43.65 L -71.45 41.65 M -74.91 45.25 L -71.45 47.25 M -71.45 47.25 L -71.45 45.65 M -74.91 43.65 L -74.91 45.25 M -73.61 44.81 L -74.56 44.81 M -72.71 45.33 L -74.08 45.33 M -71.88 45.80 L -73.25 45.80 M -71.80 46.26 L -72.46 46.26 M -71.45 47.25 L -67.98 45.25 M -67.98 45.25 L -67.98 43.65"/>
<path stroke="#000000" d="M -77.94 45.40 L -81.41 47.40 M -81.41 47.40 L -77.94 49.40 M -77.94 49.40 L -74.48 47.40 M -74.48 47.40 L -77.94 45.40 M -81.41 49.00 L -77.94 51.00 M -77.94 51.00 L -77.94 49.40 M -81.41 47.40 L -81.41 49.00 M -80.16 48.53 L -81.06 48.53 M -79.28 49.03 L -80.65 49.03 M -78.35 49.57 L -79.72 49.57 M -78.29 50.04 L -78.91 50.04 M -77.94 51.00 L -74.48 49.00 M -74.48 49.00 L -74.48 47.40"/>
<path stroke="#000000" d="M -90.90 52.04 L -90.50 52.05 L -90.12 52.11 L -89.76 52.23 L -89.42 52.39 L -84.45 55.26 M -91.80 67.99 L -96.77 65.11 L -97.08 64.90 L -97.35 64.65 L -97.60 64.35 L -97.81 64.00 L -97.98 63.62 L -98.12 63.20 L -98.21 62.75 L -98.27 62.26 L -98.29 61.75 L -98.27 61.22 L -98.21 60.66 L -98.12 60.09 L -97.98 59.52 L -97.81 58.93 L -97.60 58.35 L -97.35 57.77 L -97.08 57.19 L -96.77 56.63 L -96.44 56.08 L -96.08 55.56 L -95.70 55.05 L -95.29 54.58 L -94.87 54.14 L -94.44 53.73 L -94.00 53.36 L -93.55 53.03 L -93.10 52.75 L -92.64 52.51 L -92.20 52.32 L -91.75 52.18 L -91.32 52.09 L -90.90 52.04 M -97.57 58.27 L -90.47 62.37 M -98.26 61.06 L -91.40 65.02 M -98.04 63.45 L -91.75 67.08 M -96.95 65.00 L -91.80 67.98"/>
<path stroke="#000000" d="M -81.33 54.25 L -80.76 54.26 L -80.22 54.35 L -79.71 54.51 L -79.23 54.73 L -78.63 55.08 L -78.19 55.38 L -77.80 55.74 L -77.46 56.17 L -77.16 56.66 L -76.91 57.20 L -76.72 57.79 L -76.58 58.44 L -76.50 59.13 L -76.47 59.85 L -76.50 60.61 L -76.58 61.39 L -76.72 62.19 L -76.91 63.01 L -77.16 63.84 L -77.46 64.67 L -77.80 65.49 L -78.19 66.31 L -78.63 67.11 L -79.10 67.88 L -79.61 68.63 L -80.15 69.34 L -80.72 70.01 L -81.31 70.63 L -81.93 71.21 L -82.55 71.73 L -83.19 72.20 L -83.83 72.60 L -84.47 72.94 L -85.11 73.21 L -85.74 73.41 L -86.35 73.54 L -86.94 73.60 L -87.51 73.59 L -88.05 73.50 L -88.56 73.34 L -89.04 73.12 L -89.64 72.77 L -90.08 72.47 L -90.47 72.11 L -90.81 71.68 L -91.11 71.19 L -91.35 70.65 L -91.55 70.06 L -91.69 69.41 L -91.77 68.72 L -91.80 68.00 L -91.77 67.24 L -91.69 66.46 L -91.55 65.66 L -91.35 64.84 L -91.11 64.01 L -90.81 63.18 L -90.47 62.36 L -90.08 61.54 L -89.64 60.74 L -89.17 59.97 L -88.66 59.22 L -88.12 58.51 L -87.55 57.84 L -86.96 57.22 L -86.34 56.64 L -85.72 56.12 L -85.08 55.65 L -84.44 55.25 L -83.80 54.91 L -83.16 54.64 L -82.53 54.44 L -81.92 54.31 L -81.33 54.25 M -91.19 68.35 L -91.16 69.07 L -91.08 69.76 L -90.94 70.41 L -90.75 71.00 L -90.50 71.54 L -90.21 72.03 L -89.86 72.46 L -89.47 72.82 L -89.04 73.12 L -88.56 73.34 L -88.05 73.50 L -87.51 73.59 L -86.94 73.60 L -86.35 73.54 L -85.74 73.41 L -85.11 73.21 L -84.47 72.94 L -83.83 72.60 L -83.19 72.20 L -82.55 71.73 L -81.93 71.21 L -81.31 70.63 L -80.72 70.01 L -80.15 69.34 L -79.61 68.63 L -79.10 67.88 L -78.63 67.11 L -78.19 66.31 L -77.80 65.49 L -77.46 64.67 L -77.16 63.84 L -76.91 63.01 L -76.72 62.19 L -76.58 61.39 L -76.50 60.61 L -76.47 59.85 L -76.50 59.13 L -76.58 58.44 L -76.72 57.79 L -76.91 57.20 L -77.16 56.66 L -77.46 56.17 L -77.80 55.74 L -78.19 55.38 L -78.63 55.08 L -79.10 54.86 L -79.61 54.70 L -80.15 54.61 L -80.72 54.60 L -81.31 54.66 L -81.93 54.79 L -82.55 54.99 L -83.19 55.26 L -83.83 55.60 L -84.47 56.00 L -85.11 56.47 L -85.74 56.99 L -86.35 57.57 L -86.94 58.19 L -87.51 58.86 L -88.05 59.57 L -88.56 60.32 L -89.04 61.09 L -89.47 61.89 L -89.86 62.71 L -90.21 63.53 L -90.50 64.36 L -90.75 65.19 L -90.94 66.01 L -91.08 66.81 L -91.16 67.59 L -91.19 68.35 M -85.56 65.10 L -90.41 67.90 M -84.70 62.87 L -87.12 59.42 M -82.97 61.87 L -80.54 55.62 M -82.10 63.10 L -77.25 60.30 M -82.97 65.33 L -80.54 68.78 M -84.70 66.33 L -87.12 72.58"/>
<path stroke="#000000" d="M -51.79 35.15 L -51.79 31.10"/>
<path stroke="#000000" d="M -50.70 31.28 L -47.98 35.20 M -50.98 31.39 L -48.24 35.35"/>
<path stroke="#000000" d="M -51.80 30.70 L -51.79 30.76 L -51.78 30.82 L -51.77 30.88 L -51.75 30.94 L -51.73 31.00 L -51.70 31.05 L -51.67 31.10 L -51.63 31.15 L -51.59 31.19 L -51.55 31.24 L -51.50 31.27 L -51.45 31.31 L -51.39 31.33 L -51.33 31.36 L -51.28 31.38 L -51.22 31.39 L -51.16 31.40 L -51.10 31.40 L -51.03 31.40 L -50.97 31.39 L -50.91 31.38 L -50.86 31.36 L -50.80 31.33 L -50.75 31.31 L -50.69 31.27 L -50.65 31.24 L -50.60 31.19 L -50.56 31.15 L -50.52 31.10 L -50.49 31.05 L -50.46 31.00 L -50.44 30.94 L -50.42 30.88 L -50.41 30.82 L -50.40 30.76 L -50.40 30.70 L -50.40 30.64 L -50.41 30.58 L -50.42 30.52 L -50.44 30.46 L -50.46 30.40 L -50.49 30.35 L -50.52 30.30 L -50.56 30.25 L -50.60 30.21 L -50.65 30.16 L -50.69 30.13 L -50.75 30.09 L -50.80 30.07 L -50.86 30.04 L -50.91 30.02 L -50.97 30.01 L -51.03 30.00 L -51.10 30.00 L -51.16 30.00 L -51.22 30.01 L -51.28 30.02 L -51.33 30.04 L -51.39 30.07 L -51.45 30.09 L -51.50 30.13 L -51.55 30.16 L -51.59 30.21 L -51.63 30.25 L -51.67 30.30 L -51.70 30.35 L -51.73 30.40 L -51.75 30.46 L -51.77 30.52 L -51.78 30.58 L -51.79 30.64 L -51.80 30.70"/>
<path stroke="#000000" d="M -49.39 23.54 L -48.98 23.59 L -48.54 23.68 L -48.10 23.82 L -47.65 24.01 L -47.20 24.25 L -46.75 24.53 L -46.30 24.86 L -45.85 25.23 L -45.42 25.64 L -45.00 26.08 L -44.60 26.55 L -44.22 27.06 L -43.86 27.58 L -43.52 28.13 L -43.22 28.69 L -42.94 29.27 L -42.70 29.85 L -42.49 30.43 L -42.32 31.02 L -42.18 31.59 L -42.08 32.16 L -42.02 32.72 L -42.00 33.25 L -42.02 33.76 L -42.08 34.25 L -42.18 34.70 L -42.32 35.12 L -42.49 35.50 L -42.70 35.85 L -42.94 36.15 L -43.22 36.40 L -43.52 36.61 L -53.92 42.61 L -54.25 42.77 L -54.61 42.89 L -54.99 42.95 L -55.39 42.96 L -55.81 42.91 L -56.25 42.82 L -56.69 42.68 L -57.14 42.49 L -57.59 42.25 L -58.04 41.97 L -58.49 41.64 L -58.94 41.27 L -59.37 40.86 L -59.79 40.42 L -60.19 39.95 L -60.57 39.44 L -60.93 38.92 L -61.26 38.37 L -61.57 37.81 L -61.85 37.23 L -62.09 36.65 L -62.30 36.07 L -62.47 35.48 L -62.61 34.91 L -62.71 34.34 L -62.77 33.78 L -62.79 33.25 L -62.77 32.74 L -62.71 32.25 L -62.61 31.80 L -62.47 31.38 L -62.30 31.00 L -62.09 30.65 L -61.85 30.35 L -61.57 30.10 L -61.26 29.89 L -50.87 23.89 L -50.54 23.73 L -50.18 23.61 L -49.80 23.55 L -49.39 23.54 M -62.79 33.25 L -62.77 33.78 L -62.71 34.34 L -62.61 34.91 L -62.47 35.48 L -62.30 36.07 L -62.09 36.65 L -61.85 37.23 L -61.57 37.81 L -61.26 38.37 L -60.93 38.92 L -60.57 39.44 L -60.19 39.95 L -59.79 40.42 L -59.37 40.86 L -58.94 41.27 L -58.49 41.64 L -58.04 41.97 L -57.59 42.25 L -57.14 42.49 L -56.69 42.68 L -56.25 42.82 L -55.81 42.91 L -55.39 42.96 L -54.99 42.95 L -54.61 42.89 L -54.25 42.77 L -53.92 42.61 L -53.61 42.40 L -53.33 42.15 L -53.09 41.85 L -52.88 41.50 L -52.71 41.12 L -52.57 40.70 L -52.47 40.25 L -52.41 39.76 L -52.39 39.25 L -52.41 38.72 L -52.47 38.16 L -52.57 37.59 L -52.71 37.02 L -52.88 36.43 L -53.09 35.85 L -53.33 35.27 L -53.61 34.69 L -53.92 34.13 L -54.25 33.58 L -54.61 33.06 L -54.99 32.55 L -55.39 32.08 L -55.81 31.64 L -56.25 31.23 L -56.69 30.86 L -57.14 30.53 L -57.59 30.25 L -58.04 30.01 L -58.49 29.82 L -58.94 29.68 L -59.37 29.59 L -59.79 29.54 L -60.19 29.55 L -60.57 29.61 L -60.93 29.73 L -61.26 29.89 L -61.57 30.10 L -61.85 30.35 L -62.09 30.65 L -62.30 31.00 L -62.47 31.38 L -62.61 31.80 L -62.71 32.25 L -62.77 32.74 L -62.79 33.25 M -44.67 37.24 L -44.40 36.99 L -44.15 36.69 L -43.94 36.34 L -43.77 35.96 L -43.63 35.54 L -43.54 35.09 L -43.48 34.60 L -43.46 34.09 L -43.48 33.56 L -43.54 33.00 L -43.63 32.43 L -43.77 31.86 L -43.94 31.27 L -44.15 30.69 L -44.40 30.11 L -44.67 29.53 L -44.98 28.97 L -45.31 28.42 L -45.67 27.90 L -46.06 27.39 L -46.46 26.92 L -46.88 26.48 L -47.31 26.07 L -47.75 25.70 L -48.20 25.37 L -48.65 25.09 L -49.11 24.85 L -49.56 24.66 L -50.00 24.52 L -50.43 24.43 L -50.85 24.38 L -51.25 24.39 L -51.63 24.45 L -51.99 24.57 L -52.33 24.73 M -52.16 41.56 L -51.88 41.31 L -51.64 41.01 L -51.43 40.66 L -51.25 40.28 L -51.12 39.86 L -51.02 39.41 L -50.96 38.92 L -50.94 38.41 L -50.96 37.88 L -51.02 37.32 L -51.12 36.75 L -51.25 36.18 L -51.43 35.59 L -51.64 35.01 L -51.88 34.43 L -52.16 33.85 L -52.46 33.29 L -52.80 32.74 L -53.16 32.22 L -53.54 31.71 L -53.94 31.24 L -54.36 30.80 L -54.79 30.39 L -55.23 30.02 L -55.68 29.69 L -56.14 29.41 L -56.59 29.17 L -57.04 28.98 L -57.48 28.84 L -57.91 28.75 L -58.33 28.70 L -58.73 28.71 L -59.12 28.77 L -59.48 28.89 L -59.81 29.05 M -44.55 26.62 L -54.94 32.62 M -46.08 25.04 L -56.47 31.04 M -47.72 23.98 L -58.11 29.98 M -49.31 23.55 L -59.70 29.55 M -50.68 23.79 L -61.08 29.79 M -48.32 26.28 L -54.39 29.78 L -50.28 38.27 L -44.22 34.77 L -48.32 26.28"/>
<path stroke="#000000" d="M -56.72 26.75 L -48.06 21.75 M -49.21 23.39 L -48.06 21.75 L -50.06 21.92"/>
</g>
</svg>
